<mxfile host="65bd71144e">
    <diagram id="ULgaCWuoo8mHiAueIEnr" name="Page-1">
        <mxGraphModel dx="1087" dy="932" grid="1" gridSize="10" guides="1" tooltips="1" connect="1" arrows="1" fold="1" page="1" pageScale="1" pageWidth="850" pageHeight="1100" math="0" shadow="0">
            <root>
                <mxCell id="0"/>
                <mxCell id="1" parent="0"/>
                <mxCell id="2" value="Course" style="rounded=0;whiteSpace=wrap;html=1;shadow=0;fontSize=14;" vertex="1" parent="1">
                    <mxGeometry x="320" y="320" width="120" height="60" as="geometry"/>
                </mxCell>
                <mxCell id="11" style="edgeStyle=orthogonalEdgeStyle;html=1;exitX=0.5;exitY=1;exitDx=0;exitDy=0;curved=1;endArrow=none;endFill=0;strokeWidth=2;shadow=0;fontSize=14;" edge="1" parent="1" source="3" target="2">
                    <mxGeometry relative="1" as="geometry"/>
                </mxCell>
                <mxCell id="3" value="Department" style="ellipse;whiteSpace=wrap;html=1;shadow=0;fontSize=14;" vertex="1" parent="1">
                    <mxGeometry x="440" y="110" width="120" height="80" as="geometry"/>
                </mxCell>
                <mxCell id="12" style="edgeStyle=orthogonalEdgeStyle;html=1;exitX=0;exitY=0.5;exitDx=0;exitDy=0;entryX=1;entryY=0.5;entryDx=0;entryDy=0;curved=1;endArrow=none;endFill=0;strokeWidth=2;shadow=0;fontSize=14;" edge="1" parent="1" source="4" target="2">
                    <mxGeometry relative="1" as="geometry"/>
                </mxCell>
                <mxCell id="4" value="Course number" style="ellipse;whiteSpace=wrap;html=1;shadow=0;fontSize=14;" vertex="1" parent="1">
                    <mxGeometry x="550" y="310" width="120" height="80" as="geometry"/>
                </mxCell>
                <mxCell id="13" style="edgeStyle=orthogonalEdgeStyle;html=1;exitX=0.5;exitY=0;exitDx=0;exitDy=0;entryX=0.75;entryY=1;entryDx=0;entryDy=0;curved=1;endArrow=none;endFill=0;strokeWidth=2;shadow=0;fontSize=14;" edge="1" parent="1" source="5" target="2">
                    <mxGeometry relative="1" as="geometry"/>
                </mxCell>
                <mxCell id="5" value="Start date&amp;nbsp;" style="ellipse;whiteSpace=wrap;html=1;shadow=0;fontSize=14;" vertex="1" parent="1">
                    <mxGeometry x="430" y="470" width="120" height="80" as="geometry"/>
                </mxCell>
                <mxCell id="15" style="edgeStyle=orthogonalEdgeStyle;html=1;exitX=1;exitY=0.5;exitDx=0;exitDy=0;entryX=0;entryY=0.5;entryDx=0;entryDy=0;curved=1;endArrow=none;endFill=0;strokeWidth=2;shadow=0;fontSize=14;" edge="1" parent="1" source="6" target="2">
                    <mxGeometry relative="1" as="geometry"/>
                </mxCell>
                <mxCell id="6" value="Intructor" style="ellipse;whiteSpace=wrap;html=1;shadow=0;fontSize=14;" vertex="1" parent="1">
                    <mxGeometry x="60" y="310" width="120" height="80" as="geometry"/>
                </mxCell>
                <mxCell id="14" style="edgeStyle=orthogonalEdgeStyle;html=1;entryX=0.368;entryY=1.017;entryDx=0;entryDy=0;entryPerimeter=0;curved=1;endArrow=none;endFill=0;strokeWidth=2;shadow=0;fontSize=14;" edge="1" parent="1" target="2">
                    <mxGeometry relative="1" as="geometry">
                        <mxPoint x="310" y="482" as="sourcePoint"/>
                        <Array as="points">
                            <mxPoint x="310" y="480"/>
                            <mxPoint x="300" y="480"/>
                            <mxPoint x="300" y="425"/>
                            <mxPoint x="364" y="425"/>
                        </Array>
                    </mxGeometry>
                </mxCell>
                <mxCell id="7" value="Enrollement&amp;nbsp;" style="ellipse;whiteSpace=wrap;html=1;shadow=0;fontSize=14;" vertex="1" parent="1">
                    <mxGeometry x="230" y="470" width="120" height="80" as="geometry"/>
                </mxCell>
                <mxCell id="10" style="edgeStyle=orthogonalEdgeStyle;html=1;exitX=1;exitY=1;exitDx=0;exitDy=0;entryX=0.25;entryY=0;entryDx=0;entryDy=0;curved=1;endArrow=none;endFill=0;strokeWidth=2;shadow=0;fontSize=14;" edge="1" parent="1" source="8" target="2">
                    <mxGeometry relative="1" as="geometry"/>
                </mxCell>
                <mxCell id="8" value="Location&amp;nbsp;" style="ellipse;whiteSpace=wrap;html=1;shadow=0;fontSize=14;" vertex="1" parent="1">
                    <mxGeometry x="150" y="130" width="120" height="80" as="geometry"/>
                </mxCell>
            </root>
        </mxGraphModel>
    </diagram>
</mxfile>